<svg id="visual" viewBox="0 0 900 2000" width="900" height="2000" xmlns="http://www.w3.org/2000/svg" xmlns:xlink="http://www.w3.org/1999/xlink" version="1.1"><g stroke-width="1" stroke-linejoin="bevel"><path d="M453 974L479 870.1L338 879.1Z" fill="#29cb8b" stroke="#29cb8b"></path><path d="M338 879.1L267 995L453 974Z" fill="#68ffa4" stroke="#68ffa4"></path><path d="M479 870.1L482 737.3L338 879.1Z" fill="#3ad892" stroke="#3ad892"></path><path d="M455 1137.9L571 1017L453 974Z" fill="#29cb8b" stroke="#29cb8b"></path><path d="M453 974L571 1017L479 870.1Z" fill="#29cb8b" stroke="#29cb8b"></path><path d="M479 870.1L613 852.1L482 737.3Z" fill="#11be84" stroke="#11be84"></path><path d="M571 1017L613 852.1L479 870.1Z" fill="#3ad892" stroke="#3ad892"></path><path d="M277 1102.9L455 1137.9L453 974Z" fill="#32d18e" stroke="#32d18e"></path><path d="M267 995L277 1102.9L453 974Z" fill="#68ffa4" stroke="#68ffa4"></path><path d="M281 706.3L179 860.1L338 879.1Z" fill="#42de95" stroke="#42de95"></path><path d="M338 879.1L179 860.1L267 995Z" fill="#61f8a1" stroke="#61f8a1"></path><path d="M267 995L169 1009L277 1102.9Z" fill="#59f29e" stroke="#59f29e"></path><path d="M482 737.3L281 706.3L338 879.1Z" fill="#1ec487" stroke="#1ec487"></path><path d="M179 860.1L169 1009L267 995Z" fill="#42de95" stroke="#42de95"></path><path d="M613 852.1L594 694.3L482 737.3Z" fill="#42de95" stroke="#42de95"></path><path d="M482 737.3L471 600.4L281 706.3Z" fill="#68ffa4" stroke="#68ffa4"></path><path d="M594 694.3L471 600.4L482 737.3Z" fill="#61f8a1" stroke="#61f8a1"></path><path d="M141 602.4L156 685.3L281 706.3Z" fill="#29cb8b" stroke="#29cb8b"></path><path d="M281 706.3L156 685.3L179 860.1Z" fill="#1ec487" stroke="#1ec487"></path><path d="M179 860.1L0 1021L169 1009Z" fill="#32d18e" stroke="#32d18e"></path><path d="M483 1260.7L620 1175.9L455 1137.9Z" fill="#32d18e" stroke="#32d18e"></path><path d="M455 1137.9L620 1175.9L571 1017Z" fill="#32d18e" stroke="#32d18e"></path><path d="M775 1029L744 833.1L613 852.1Z" fill="#4ae598" stroke="#4ae598"></path><path d="M613 852.1L712 726.3L594 694.3Z" fill="#4ae598" stroke="#4ae598"></path><path d="M775 1029L613 852.1L571 1017Z" fill="#3ad892" stroke="#3ad892"></path><path d="M744 833.1L712 726.3L613 852.1Z" fill="#59f29e" stroke="#59f29e"></path><path d="M594 694.3L637 606.4L471 600.4Z" fill="#11be84" stroke="#11be84"></path><path d="M280 1284.7L483 1260.7L455 1137.9Z" fill="#4ae598" stroke="#4ae598"></path><path d="M169 1009L161 1168.9L277 1102.9Z" fill="#4ae598" stroke="#4ae598"></path><path d="M277 1102.9L280 1284.7L455 1137.9Z" fill="#32d18e" stroke="#32d18e"></path><path d="M0 1103.9L161 1168.9L169 1009Z" fill="#32d18e" stroke="#32d18e"></path><path d="M471 600.4L330 554.4L281 706.3Z" fill="#29cb8b" stroke="#29cb8b"></path><path d="M712 726.3L637 606.4L594 694.3Z" fill="#3ad892" stroke="#3ad892"></path><path d="M471 600.4L472 410.6L330 554.4Z" fill="#61f8a1" stroke="#61f8a1"></path><path d="M620 1175.9L775 1029L571 1017Z" fill="#42de95" stroke="#42de95"></path><path d="M161 1168.9L280 1284.7L277 1102.9Z" fill="#61f8a1" stroke="#61f8a1"></path><path d="M330 554.4L141 602.4L281 706.3Z" fill="#61f8a1" stroke="#61f8a1"></path><path d="M0 734.3L0 833.1L179 860.1Z" fill="#51eb9b" stroke="#51eb9b"></path><path d="M0 734.3L179 860.1L156 685.3Z" fill="#11be84" stroke="#11be84"></path><path d="M483 1260.7L625 1275.7L620 1175.9Z" fill="#3ad892" stroke="#3ad892"></path><path d="M620 1175.9L782 1169.9L775 1029Z" fill="#59f29e" stroke="#59f29e"></path><path d="M472 1393.6L625 1275.7L483 1260.7Z" fill="#11be84" stroke="#11be84"></path><path d="M0 833.1L0 1021L179 860.1Z" fill="#11be84" stroke="#11be84"></path><path d="M161 1168.9L167 1269.7L280 1284.7Z" fill="#61f8a1" stroke="#61f8a1"></path><path d="M0 1316.7L167 1269.7L161 1168.9Z" fill="#29cb8b" stroke="#29cb8b"></path><path d="M141 602.4L0 734.3L156 685.3Z" fill="#1ec487" stroke="#1ec487"></path><path d="M739 1286.7L782 1169.9L620 1175.9Z" fill="#59f29e" stroke="#59f29e"></path><path d="M0 1021L0 1103.9L169 1009Z" fill="#11be84" stroke="#11be84"></path><path d="M900 710.3L753 579.4L712 726.3Z" fill="#68ffa4" stroke="#68ffa4"></path><path d="M712 726.3L753 579.4L637 606.4Z" fill="#11be84" stroke="#11be84"></path><path d="M637 606.4L561 451.6L471 600.4Z" fill="#29cb8b" stroke="#29cb8b"></path><path d="M900 710.3L712 726.3L744 833.1Z" fill="#68ffa4" stroke="#68ffa4"></path><path d="M900 887.1L744 833.1L775 1029Z" fill="#51eb9b" stroke="#51eb9b"></path><path d="M743 451.6L561 451.6L637 606.4Z" fill="#68ffa4" stroke="#68ffa4"></path><path d="M330 554.4L279 393.6L141 602.4Z" fill="#4ae598" stroke="#4ae598"></path><path d="M280 1284.7L472 1393.6L483 1260.7Z" fill="#4ae598" stroke="#4ae598"></path><path d="M625 1275.7L739 1286.7L620 1175.9Z" fill="#1ec487" stroke="#1ec487"></path><path d="M300 1403.6L472 1393.6L280 1284.7Z" fill="#61f8a1" stroke="#61f8a1"></path><path d="M900 1038L900 887.1L775 1029Z" fill="#1ec487" stroke="#1ec487"></path><path d="M601 1438.6L739 1286.7L625 1275.7Z" fill="#61f8a1" stroke="#61f8a1"></path><path d="M900 1135.9L900 1038L775 1029Z" fill="#68ffa4" stroke="#68ffa4"></path><path d="M561 451.6L472 410.6L471 600.4Z" fill="#42de95" stroke="#42de95"></path><path d="M900 1135.9L775 1029L782 1169.9Z" fill="#51eb9b" stroke="#51eb9b"></path><path d="M128 1390.6L280 1284.7L167 1269.7Z" fill="#29cb8b" stroke="#29cb8b"></path><path d="M128 1390.6L300 1403.6L280 1284.7Z" fill="#29cb8b" stroke="#29cb8b"></path><path d="M900 887.1L900 710.3L744 833.1Z" fill="#32d18e" stroke="#32d18e"></path><path d="M118 396.6L0 576.4L141 602.4Z" fill="#3ad892" stroke="#3ad892"></path><path d="M141 602.4L0 576.4L0 734.3Z" fill="#68ffa4" stroke="#68ffa4"></path><path d="M472 410.6L279 393.6L330 554.4Z" fill="#4ae598" stroke="#4ae598"></path><path d="M900 1262.7L900 1135.9L782 1169.9Z" fill="#59f29e" stroke="#59f29e"></path><path d="M0 1316.7L128 1390.6L167 1269.7Z" fill="#3ad892" stroke="#3ad892"></path><path d="M575 1545.4L601 1438.6L472 1393.6Z" fill="#42de95" stroke="#42de95"></path><path d="M472 1393.6L601 1438.6L625 1275.7Z" fill="#32d18e" stroke="#32d18e"></path><path d="M739 1286.7L900 1262.7L782 1169.9Z" fill="#4ae598" stroke="#4ae598"></path><path d="M465 1561.4L472 1393.6L300 1403.6Z" fill="#59f29e" stroke="#59f29e"></path><path d="M596 282.7L435 296.7L472 410.6Z" fill="#4ae598" stroke="#4ae598"></path><path d="M753 579.4L743 451.6L637 606.4Z" fill="#42de95" stroke="#42de95"></path><path d="M900 565.4L743 451.6L753 579.4Z" fill="#1ec487" stroke="#1ec487"></path><path d="M0 1103.9L0 1316.7L161 1168.9Z" fill="#32d18e" stroke="#32d18e"></path><path d="M279 393.6L118 396.6L141 602.4Z" fill="#51eb9b" stroke="#51eb9b"></path><path d="M900 710.3L900 565.4L753 579.4Z" fill="#42de95" stroke="#42de95"></path><path d="M782 1405.6L900 1262.7L739 1286.7Z" fill="#29cb8b" stroke="#29cb8b"></path><path d="M472 410.6L435 296.7L279 393.6Z" fill="#29cb8b" stroke="#29cb8b"></path><path d="M279 393.6L171 247.7L118 396.6Z" fill="#32d18e" stroke="#32d18e"></path><path d="M596 282.7L472 410.6L561 451.6Z" fill="#42de95" stroke="#42de95"></path><path d="M601 1438.6L782 1405.6L739 1286.7Z" fill="#68ffa4" stroke="#68ffa4"></path><path d="M0 267.7L0 419.6L118 396.6Z" fill="#4ae598" stroke="#4ae598"></path><path d="M118 396.6L0 419.6L0 576.4Z" fill="#4ae598" stroke="#4ae598"></path><path d="M757 255.7L596 282.7L743 451.6Z" fill="#4ae598" stroke="#4ae598"></path><path d="M743 451.6L596 282.7L561 451.6Z" fill="#1ec487" stroke="#1ec487"></path><path d="M267 1568.4L465 1561.4L300 1403.6Z" fill="#68ffa4" stroke="#68ffa4"></path><path d="M601 1438.6L761 1582.4L782 1405.6Z" fill="#4ae598" stroke="#4ae598"></path><path d="M465 1561.4L575 1545.4L472 1393.6Z" fill="#68ffa4" stroke="#68ffa4"></path><path d="M900 565.4L900 446.6L743 451.6Z" fill="#59f29e" stroke="#59f29e"></path><path d="M128 1390.6L267 1568.4L300 1403.6Z" fill="#61f8a1" stroke="#61f8a1"></path><path d="M176 1596.4L267 1568.4L128 1390.6Z" fill="#68ffa4" stroke="#68ffa4"></path><path d="M263 157.9L270 246.7L458 141.9Z" fill="#11be84" stroke="#11be84"></path><path d="M435 296.7L270 246.7L279 393.6Z" fill="#32d18e" stroke="#32d18e"></path><path d="M782 1405.6L900 1395.6L900 1262.7Z" fill="#1ec487" stroke="#1ec487"></path><path d="M900 1584.4L900 1395.6L782 1405.6Z" fill="#42de95" stroke="#42de95"></path><path d="M0 1316.7L0 1467.6L128 1390.6Z" fill="#32d18e" stroke="#32d18e"></path><path d="M270 246.7L171 247.7L279 393.6Z" fill="#1ec487" stroke="#1ec487"></path><path d="M0 1467.6L176 1596.4L128 1390.6Z" fill="#51eb9b" stroke="#51eb9b"></path><path d="M431 1703.3L577 1678.3L465 1561.4Z" fill="#29cb8b" stroke="#29cb8b"></path><path d="M900 279.7L757 255.7L743 451.6Z" fill="#29cb8b" stroke="#29cb8b"></path><path d="M458 141.9L270 246.7L435 296.7Z" fill="#1ec487" stroke="#1ec487"></path><path d="M0 1467.6L0 1543.4L176 1596.4Z" fill="#4ae598" stroke="#4ae598"></path><path d="M577 1678.3L761 1582.4L575 1545.4Z" fill="#32d18e" stroke="#32d18e"></path><path d="M575 1545.4L761 1582.4L601 1438.6Z" fill="#3ad892" stroke="#3ad892"></path><path d="M577 1678.3L575 1545.4L465 1561.4Z" fill="#61f8a1" stroke="#61f8a1"></path><path d="M171 247.7L0 267.7L118 396.6Z" fill="#68ffa4" stroke="#68ffa4"></path><path d="M270 246.7L263 157.9L171 247.7Z" fill="#42de95" stroke="#42de95"></path><path d="M171 247.7L118 158.9L0 267.7Z" fill="#11be84" stroke="#11be84"></path><path d="M458 141.9L435 296.7L596 282.7Z" fill="#61f8a1" stroke="#61f8a1"></path><path d="M574 138.9L458 141.9L596 282.7Z" fill="#68ffa4" stroke="#68ffa4"></path><path d="M725 152.9L574 138.9L596 282.7Z" fill="#3ad892" stroke="#3ad892"></path><path d="M431 1703.3L465 1561.4L267 1568.4Z" fill="#51eb9b" stroke="#51eb9b"></path><path d="M316 1724.3L267 1568.4L176 1596.4Z" fill="#1ec487" stroke="#1ec487"></path><path d="M316 1724.3L431 1703.3L267 1568.4Z" fill="#68ffa4" stroke="#68ffa4"></path><path d="M900 446.6L900 279.7L743 451.6Z" fill="#51eb9b" stroke="#51eb9b"></path><path d="M757 255.7L725 152.9L596 282.7Z" fill="#51eb9b" stroke="#51eb9b"></path><path d="M263 157.9L118 158.9L171 247.7Z" fill="#61f8a1" stroke="#61f8a1"></path><path d="M143 0L118 158.9L263 157.9Z" fill="#51eb9b" stroke="#51eb9b"></path><path d="M900 181.9L725 152.9L757 255.7Z" fill="#51eb9b" stroke="#51eb9b"></path><path d="M133 1734.3L316 1724.3L176 1596.4Z" fill="#4ae598" stroke="#4ae598"></path><path d="M789 1833.1L763 1731.3L589 1892.1Z" fill="#3ad892" stroke="#3ad892"></path><path d="M900 1692.3L900 1584.4L761 1582.4Z" fill="#3ad892" stroke="#3ad892"></path><path d="M761 1582.4L900 1584.4L782 1405.6Z" fill="#42de95" stroke="#42de95"></path><path d="M0 0L0 163.9L118 158.9Z" fill="#61f8a1" stroke="#61f8a1"></path><path d="M118 158.9L0 163.9L0 267.7Z" fill="#61f8a1" stroke="#61f8a1"></path><path d="M0 1543.4L133 1734.3L176 1596.4Z" fill="#68ffa4" stroke="#68ffa4"></path><path d="M900 279.7L900 181.9L757 255.7Z" fill="#61f8a1" stroke="#61f8a1"></path><path d="M481 1834.1L577 1678.3L431 1703.3Z" fill="#3ad892" stroke="#3ad892"></path><path d="M577 1678.3L763 1731.3L761 1582.4Z" fill="#68ffa4" stroke="#68ffa4"></path><path d="M481 1834.1L431 1703.3L298 1836.1Z" fill="#68ffa4" stroke="#68ffa4"></path><path d="M574 138.9L443 0L458 141.9Z" fill="#59f29e" stroke="#59f29e"></path><path d="M458 141.9L299 0L263 157.9Z" fill="#59f29e" stroke="#59f29e"></path><path d="M627 0L443 0L574 138.9Z" fill="#42de95" stroke="#42de95"></path><path d="M627 0L574 138.9L725 152.9Z" fill="#59f29e" stroke="#59f29e"></path><path d="M443 0L299 0L458 141.9Z" fill="#29cb8b" stroke="#29cb8b"></path><path d="M0 1543.4L0 1733.3L133 1734.3Z" fill="#29cb8b" stroke="#29cb8b"></path><path d="M763 1731.3L900 1692.3L761 1582.4Z" fill="#4ae598" stroke="#4ae598"></path><path d="M298 1836.1L316 1724.3L133 1734.3Z" fill="#68ffa4" stroke="#68ffa4"></path><path d="M298 1836.1L431 1703.3L316 1724.3Z" fill="#1ec487" stroke="#1ec487"></path><path d="M763 1731.3L900 1828.1L900 1692.3Z" fill="#61f8a1" stroke="#61f8a1"></path><path d="M728 0L627 0L725 152.9Z" fill="#11be84" stroke="#11be84"></path><path d="M119 1870.1L298 1836.1L133 1734.3Z" fill="#3ad892" stroke="#3ad892"></path><path d="M299 0L143 0L263 157.9Z" fill="#32d18e" stroke="#32d18e"></path><path d="M900 0L728 0L725 152.9Z" fill="#42de95" stroke="#42de95"></path><path d="M143 0L0 0L118 158.9Z" fill="#59f29e" stroke="#59f29e"></path><path d="M589 1892.1L577 1678.3L481 1834.1Z" fill="#3ad892" stroke="#3ad892"></path><path d="M589 1892.1L763 1731.3L577 1678.3Z" fill="#4ae598" stroke="#4ae598"></path><path d="M454 2000L589 1892.1L481 1834.1Z" fill="#32d18e" stroke="#32d18e"></path><path d="M0 1839.1L119 1870.1L133 1734.3Z" fill="#29cb8b" stroke="#29cb8b"></path><path d="M298 1836.1L454 2000L481 1834.1Z" fill="#29cb8b" stroke="#29cb8b"></path><path d="M0 1733.3L0 1839.1L133 1734.3Z" fill="#59f29e" stroke="#59f29e"></path><path d="M900 181.9L900 0L725 152.9Z" fill="#32d18e" stroke="#32d18e"></path><path d="M900 2000L900 1828.1L789 1833.1Z" fill="#4ae598" stroke="#4ae598"></path><path d="M789 1833.1L900 1828.1L763 1731.3Z" fill="#61f8a1" stroke="#61f8a1"></path><path d="M283 2000L298 1836.1L167 2000Z" fill="#42de95" stroke="#42de95"></path><path d="M283 2000L454 2000L298 1836.1Z" fill="#4ae598" stroke="#4ae598"></path><path d="M589 1892.1L745 2000L789 1833.1Z" fill="#29cb8b" stroke="#29cb8b"></path><path d="M167 2000L298 1836.1L119 1870.1Z" fill="#42de95" stroke="#42de95"></path><path d="M454 2000L631 2000L589 1892.1Z" fill="#59f29e" stroke="#59f29e"></path><path d="M0 2000L167 2000L119 1870.1Z" fill="#68ffa4" stroke="#68ffa4"></path><path d="M631 2000L745 2000L589 1892.1Z" fill="#61f8a1" stroke="#61f8a1"></path><path d="M0 1839.1L0 2000L119 1870.1Z" fill="#1ec487" stroke="#1ec487"></path><path d="M745 2000L900 2000L789 1833.1Z" fill="#61f8a1" stroke="#61f8a1"></path></g></svg>