<svg width="909" height="198" viewBox="0 0 909 198" fill="none" xmlns="http://www.w3.org/2000/svg">
<path d="M0 195.68L65 65.6796L109 152.18H84.5L65.5 113.18L24.5 195.68H0Z" fill="white"/>
<path d="M35.5 196.18L65.5 140.18L96 196.18H35.5Z" fill="white"/>
<path d="M106.5 196.18L95.5 173.68H120L131 196.18H106.5Z" fill="white"/>
<path d="M124.5 158.68V105.68L147 125.68V196.18L124.5 158.68Z" fill="white"/>
<path d="M125.5 98.6796V65.1796L212 143.18V65.1796H234V195.68L125.5 98.6796Z" fill="white"/>
<path d="M239 195.68L304 65.6796L348 152.18H323.5L304.5 113.18L263.5 195.68H239Z" fill="white"/>
<path d="M274.5 196.18L304.5 140.18L335 196.18H274.5Z" fill="white"/>
<path d="M345.5 196.18L334.5 173.68H359L370 196.18H345.5Z" fill="white"/>
<path d="M373 166.18V65.6796H395V144.68L373 166.18Z" fill="white"/>
<path d="M395 173.68L373 196.18H460V173.68H395Z" fill="white"/>
<path d="M514 130.18L462 64.6796H491L528 112.18L564 64.6796H592.5L491 195.68H462L514 130.18Z" fill="white"/>
<path d="M580 86.6796L596.5 65.1796H676L660 86.6796H631.5V196.18H608.5V86.6796H580Z" fill="white"/>
<path d="M680.5 0.179626V195.68H703.5V22.6796L680.5 0.179626Z" fill="white"/>
<path d="M719.5 140.18C765.9 218.98 837.167 199.013 867 179.18L843.5 155.18C822.164 170.38 792.61 163.18 780.5 157.68C732.9 126.88 743 83.1796 754 65.1796C778.8 25.1796 821.667 31.1796 840 39.1796C886.8 69.9796 876.833 114.013 866 132.18L890.5 155.68C931.7 90.8796 893 37.3463 868.5 18.6796C836.1 -6.12037 795 -0.987032 778.5 4.67963C700.9 37.0796 706.833 108.513 719.5 140.18Z" fill="white"/>
<path d="M819.5 88.6796H783.5L891.5 197.68V161.68L819.5 88.6796Z" fill="white"/>
</svg>
